<?xml version="1.0" encoding="UTF-8"?>
<svg id="Capa_1" data-name="Capa 1" xmlns="http://www.w3.org/2000/svg" viewBox="0 0 512 512">
  <path d="m316.61,332.77h-121.22v18.18c0,7.81,6.33,14.14,14.14,14.14h92.93c7.81,0,14.14-6.33,14.14-14.14v-18.18h0Z" style="fill: #ffe177;"/>
  <path d="m302.47,365.1h-30.3c7.81,0,14.14-6.33,14.14-14.14v-18.18h30.3v18.18c0,7.81-6.33,14.14-14.14,14.14Z" style="fill: #ffd15b;"/>
  <path d="m284.67,497.12l-18.56-83.54h-20.2l-18.56,83.54c-.84,3.79,2.04,7.38,5.92,7.38h45.5c3.88,0,6.76-3.59,5.92-7.38Z" style="fill: #ffc344;"/>
  <path d="m236.08,457.77c6.08,2.75,12.82,4.3,19.92,4.3s13.84-1.55,19.92-4.3l-9.82-44.19h-20.2l-9.82,44.19Z" style="fill: #feb237;"/>
  <path d="m316.61,70.13h-121.22v-18.18c0-7.81,6.33-14.14,14.14-14.14h92.93c7.81,0,14.14,6.33,14.14,14.14v18.18h0Z" style="fill: #ffe177;"/>
  <path d="m302.47,37.81h-30.3c7.81,0,14.14,6.33,14.14,14.14v18.18h30.3v-18.18c0-7.81-6.33-14.14-14.14-14.14Z" style="fill: #ffd15b;"/>
  <path d="m326.71,332.77h-141.42c-72.53,0-131.32-58.79-131.32-131.32S112.76,70.13,185.29,70.13h141.42c72.53,0,131.32,58.79,131.32,131.32,0,72.53-58.79,131.32-131.32,131.32h0Z" style="fill: #fe646f;"/>
  <path d="m256,332.77c-72.53,0-131.32-58.79-131.32-131.32s58.79-131.32,131.32-131.32,131.32,58.79,131.32,131.32-58.79,131.32-131.32,131.32h0Z" style="fill: #fe99a0;"/>
  <path d="m387.29,84.92c10.37,22.57,16.16,47.67,16.16,74.14,0,85.2-59.95,156.39-139.96,173.72h63.22c72.53,0,131.32-58.79,131.32-131.32,0-50.68-28.71-94.64-70.74-116.53h0Z" style="fill: #fd4755;"/>
  <path d="m324.81,89.59c12.34,20.01,19.46,43.58,19.46,68.81,0,72.53-58.79,131.32-131.32,131.32-25.23,0-48.8-7.12-68.81-19.46,23.12,37.5,64.57,62.51,111.86,62.51,72.53,0,131.32-58.79,131.32-131.32,0-47.29-25-88.74-62.51-111.86Z" style="fill: #fd8087;"/>
  <circle cx="256" cy="413.58" r="20.2" style="fill: #ffe177;"/>
  <path d="m444.26,127.57c-2.21-3.5-6.84-4.56-10.34-2.35-3.5,2.21-4.55,6.84-2.35,10.34,12.41,19.68,18.96,42.47,18.96,65.88,0,33.07-12.88,64.16-36.26,87.56-23.4,23.39-54.49,36.27-87.56,36.27h-7.98c45.11-22.95,76.09-69.83,76.09-123.82s-30.98-100.87-76.1-123.82h7.99c31.11,0,60.86,11.59,83.77,32.63,3.05,2.8,7.79,2.6,10.6-.45,2.8-3.05,2.6-7.79-.45-10.6-25.68-23.59-59.03-36.59-93.91-36.59h-2.6v-10.68c0-11.94-9.71-21.65-21.64-21.65h-.61c-4.14,0-7.5,3.36-7.5,7.5s3.36,7.5,7.5,7.5h.61c3.66,0,6.64,2.98,6.64,6.65v10.68h-106.22v-10.68c0-3.67,2.98-6.65,6.64-6.65h57.33c4.14,0,7.5-3.36,7.5-7.5s-3.36-7.5-7.5-7.5h-3.36V7.5C263.5,3.36,260.14,0,256,0s-7.5,3.36-7.5,7.5v22.8h-38.97c-11.93,0-21.64,9.71-21.64,21.65v10.68h-2.6c-37.07,0-71.93,14.44-98.16,40.66-26.22,26.23-40.66,61.09-40.66,98.16,0,20.79,4.49,40.79,13.33,59.43,1.28,2.7,3.97,4.29,6.78,4.29,1.08,0,2.17-.23,3.21-.73,3.74-1.78,5.33-6.25,3.56-9.99-7.89-16.61-11.89-34.44-11.89-52.99,0-33.07,12.88-64.16,36.26-87.56,23.4-23.39,54.49-36.26,87.56-36.26h7.99c-45.12,22.95-76.1,69.83-76.1,123.82s30.98,100.87,76.09,123.82h-7.98c-36.15,0-70.41-15.75-93.99-43.21-2.7-3.14-7.43-3.5-10.58-.8s-3.5,7.43-.8,10.58c26.43,30.78,64.84,48.43,105.37,48.43h2.6v10.68c0,11.45,8.94,20.85,20.2,21.59v10.74c0,4.14,3.36,7.5,7.5,7.5s7.5-3.36,7.5-7.5v-10.68h25.41v14.33c-11.64,3.28-20.2,13.99-20.2,26.66,0,6.54,2.28,12.55,6.08,17.29l-14.37,64.62c-.9,4.04.07,8.2,2.66,11.43s6.44,5.08,10.58,5.08h45.5c4.14,0,7.99-1.85,10.58-5.08s3.56-7.39,2.66-11.43l-14.36-64.62c3.8-4.74,6.08-10.75,6.08-17.29,0-12.68-8.56-23.38-20.2-26.66v-14.33h25.41v10.68c0,4.14,3.36,7.5,7.5,7.5s7.5-3.36,7.5-7.5v-10.74c11.26-.74,20.2-10.14,20.2-21.59v-10.69h2.6c37.07,0,71.93-14.44,98.16-40.66,26.22-26.23,40.66-61.09,40.66-98.16,0-26.25-7.36-51.8-21.27-73.88h0Zm-209.21,369.43l12.67-56.98c2.62.82,5.4,1.27,8.29,1.27s5.67-.45,8.29-1.27l12.67,56.98h-41.91Zm33.66-83.42c0,7-5.7,12.7-12.7,12.7s-12.7-5.7-12.7-12.7,5.7-12.7,12.7-12.7,12.7,5.7,12.7,12.7Zm111.12-212.13c0,65.76-51.52,119.7-116.32,123.59V77.86c64.8,3.89,116.32,57.83,116.32,123.59h0Zm-247.64,0c0-65.76,51.52-119.7,116.32-123.59v247.18c-64.79-3.89-116.32-57.83-116.32-123.59Zm176.93,149.5c0,3.66-2.98,6.64-6.64,6.64h-92.93c-3.66,0-6.64-2.98-6.64-6.64v-10.68h52.92c.06,0,.13,0,.19,0s.13,0,.19,0h52.92v10.68h0Z" style="fill: #113157;"/>
</svg>